# xmcd
#
# Track frame offsets:
#	150
#	17316
#	38063
#	53127
#	70278
#	91008
#
# Disc length: 1528 seconds
#
# Revision: 1
# Processed by: cddbd v1.5.2PL0 Copyright (c) Steve Scherf et al.
# Submitted via: audiograbber 1.83.01
#
DISCID=3c05f606
DTITLE=Brad Petersen - Second Chances
DYEAR=2018
DGENRE=Country
TTITLE0=Better Hands
TTITLE1=The Weary Kind
TTITLE2=The Way I Am
TTITLE3=Second Chances
TTITLE4=Me and Paul
TTITLE5=If I Could Only Fly
EXTD=Recorded at Studio Palmetto, Chico, CA
EXTT0=
EXTT1=
EXTT2=
EXTT3=
EXTT4=
EXTT5=
PLAYORDER=
